<?xml version="1.0" encoding="utf-8"?>
<!-- Generator: Adobe Illustrator 16.0.0, SVG Export Plug-In . SVG Version: 6.00 Build 0)  -->
<!DOCTYPE svg PUBLIC "-//W3C//DTD SVG 1.1//EN" "http://www.w3.org/Graphics/SVG/1.1/DTD/svg11.dtd">
<svg version="1.1" id="Layer_1" xmlns="http://www.w3.org/2000/svg" xmlns:xlink="http://www.w3.org/1999/xlink" x="0px" y="0px"
	 width="307.333px" height="306.667px" viewBox="0 0 307.333 306.667" enable-background="new 0 0 307.333 306.667"
	 xml:space="preserve">
<path fill="#FFFFFF" d="M299.431,151.744c0,80.878-65.571,146.485-146.481,146.485c-80.91,0-146.481-65.606-146.481-146.485
	C6.469,70.824,72.04,5.217,152.95,5.217C233.86,5.217,299.431,70.824,299.431,151.744"/>
<g>
	<g>
		<g>
			<path stroke="#000000" stroke-width="0.2" stroke-miterlimit="10" d="M117.063,255.924c0,0-0.972-0.277-2.43-0.693
				c-1.458-0.417-3.356-1.125-5.276-1.759c-1.931-0.604-3.785-1.43-5.204-1.967c-1.412-0.558-2.354-0.93-2.354-0.93l0.893,2.138
				c0,0,0.639,0.253,1.598,0.633c0.964,0.362,2.222,0.923,3.526,1.356c2.601,0.886,5.201,1.771,5.201,1.771l-0.34,1.072
				c-1.91-0.037-3.818,0.071-5.737,0.32c-1.926,0.266-3.814,0.48-5.767,0.902l1.068,3.66c0.732,0.338,1.401,0.801,2.063,1.256
				c0.654,0.472,1.253,0.997,1.801,1.58c0.675,0.726,1.251,1.476,1.727,2.251c0.476,0.777,0.802,1.699,0.981,2.77
				c0.034,0.249,0.044,0.502,0.033,0.754c-0.013,0.252-0.025,0.488-0.037,0.71c-0.013,0.221-0.024,0.422-0.035,0.604
				c-0.012,0.182,0.011,0.33,0.066,0.443c0.085,0.239,0.207,0.381,0.363,0.426c0.157,0.046,0.292,0.182,0.405,0.409l5.046-16.669
				l3.54,1.013L117.063,255.924z M109.247,268.383c-0.381-1.456-1.001-2.801-1.857-4.034c-0.856-1.239-1.874-2.33-3.035-3.353
				c1.265-0.25,2.532-0.5,3.78-0.673c1.251-0.179,2.497-0.266,3.745-0.256L109.247,268.383z"/>
			<path stroke="#000000" stroke-width="0.2" stroke-miterlimit="10" d="M124.105,257.736l-2.48-0.577
				c-0.123-0.22-0.224-0.401-0.305-0.547c-0.082-0.144-0.14-0.277-0.177-0.401s-0.06-0.264-0.069-0.42s-0.001-0.356,0.022-0.601
				c0,0-0.131-0.168-0.263-0.336c-0.129-0.175-0.257-0.351-0.257-0.351c-0.153,0.952-0.261,1.74-0.324,2.366
				c-0.062,0.622-0.114,1.148-0.157,1.582c-0.046,0.433-0.085,0.799-0.117,1.098c-0.037,0.3-0.092,0.596-0.167,0.887
				c-0.066-0.691-0.145-1.276-0.232-1.784c-0.089-0.504-0.221-0.927-0.398-1.271c-0.176-0.344-0.413-0.625-0.708-0.848
				c-0.296-0.221-0.672-0.397-1.131-0.529c-0.183-0.052-0.345-0.094-0.486-0.124c-0.141-0.029-0.335-0.091-0.587-0.183l0.843,1.968
				c0.498,0.084,0.89,0.24,1.178,0.47c0.289,0.229,0.492,0.517,0.611,0.862c0.12,0.347,0.169,0.736,0.146,1.17
				c-0.022,0.433-0.095,0.885-0.218,1.356l-3.144,12.033l0.67,1.035c0.179,0.257,0.344,0.493,0.494,0.708
				c0.147,0.218,0.243,0.331,0.286,0.341l4.173-16.851l4.092,0.953L124.105,257.736z"/>
			<path stroke="#000000" stroke-width="0.2" stroke-miterlimit="10" d="M128.875,267.112c0.485-0.122,0.926-0.328,1.322-0.619
				c0.396-0.29,0.729-0.64,0.998-1.049s0.442-0.854,0.52-1.336c0.081-0.5,0.06-0.999-0.057-1.497
				c-0.117-0.497-0.312-0.957-0.584-1.378s-0.616-0.778-1.033-1.072c-0.417-0.295-0.889-0.489-1.417-0.584
				c-0.472-0.085-0.951-0.057-1.441,0.084c-0.491,0.146-0.943,0.354-1.354,0.615c-0.413,0.27-0.772,0.6-1.077,0.99
				c-0.305,0.393-0.509,0.816-0.61,1.274c-0.112,0.513-0.118,1.022-0.014,1.528s0.301,0.975,0.59,1.408
				c0.288,0.44,0.662,0.8,1.122,1.087c0.458,0.294,0.968,0.489,1.527,0.59C127.886,267.248,128.39,267.235,128.875,267.112z
				 M132.761,278.583l-2.064-2.882l-2.026-2.938c-1.342-1.951-2.821-3.736-4.406-5.515l-0.773,3.661
				c1.602,1.536,3.155,2.962,4.619,4.44c0.732,0.732,1.468,1.493,2.208,2.283c0.741,0.771,1.491,1.553,2.25,2.344L132.761,278.583z
				 M129.92,261.825c0.141,0.208,0.224,0.44,0.248,0.703c0.024,0.262,0.001,0.534-0.068,0.817c-0.069,0.282-0.17,0.517-0.303,0.702
				c-0.11,0.171-0.307,0.342-0.589,0.509c-0.284,0.169-0.588,0.318-0.918,0.449c-0.329,0.132-0.658,0.229-0.987,0.294
				s-0.602,0.077-0.819,0.038c-0.415-0.074-0.662-0.243-0.741-0.505c-0.081-0.262-0.084-0.559-0.017-0.89
				c0.072-0.349,0.227-0.688,0.466-1.016c0.237-0.329,0.521-0.616,0.85-0.862c0.329-0.245,0.683-0.43,1.063-0.553
				c0.38-0.121,0.761-0.148,1.145-0.08C129.554,261.488,129.779,261.619,129.92,261.825z"/>
			<path stroke="#000000" stroke-width="0.2" stroke-miterlimit="10" d="M153.885,262.74c-0.35-0.302-0.647-0.604-0.896-0.851
				c-0.209-0.212-0.404-0.41-0.585-0.594c-0.18-0.183-0.27-0.264-0.27-0.246c0,0-1.15-0.03-2.875-0.074
				c-0.862-0.032-1.87-0.023-2.946-0.095c-1.075-0.084-2.222-0.173-3.368-0.262c-1.146-0.098-2.295-0.152-3.366-0.276
				c-1.069-0.139-2.067-0.268-2.922-0.378c-1.711-0.219-2.851-0.364-2.851-0.364c0.002-0.017,0.081,0.072,0.234,0.271
				c0.155,0.199,0.321,0.415,0.5,0.646l0.742,0.945c0,0,0.821,0.105,2.052,0.264c0.615,0.079,1.333,0.172,2.103,0.271
				c0.77,0.099,1.598,0.132,2.422,0.204c1.65,0.127,3.301,0.255,4.539,0.351c1.24,0.057,2.068,0.064,2.068,0.063l-0.172,4.556
				c-0.107-0.321-0.25-0.654-0.423-0.996c-0.176-0.343-0.385-0.657-0.628-0.944c-0.243-0.291-0.526-0.516-0.849-0.718
				c-0.323-0.204-0.678-0.321-1.068-0.352c-0.216-0.017-0.449,0.031-0.701,0.144s-0.488,0.254-0.707,0.425s-0.411,0.368-0.576,0.59
				c-0.165,0.223-0.255,0.428-0.269,0.614c-0.43-0.635-0.915-1.166-1.458-1.593c-0.544-0.43-1.232-0.668-2.068-0.742
				c-0.621-0.08-1.208-0.051-1.766,0.085s-1.058,0.351-1.503,0.644c-0.445,0.292-0.817,0.66-1.118,1.104
				c-0.3,0.444-0.509,0.934-0.623,1.467c-0.223,1.031-0.216,1.897,0.03,2.6c0.246,0.703,0.63,1.263,1.152,1.68
				c0.521,0.417,1.116,0.702,1.779,0.853c0.663,0.148,1.296,0.202,1.902,0.085c0.604-0.104,1.117-0.296,1.536-0.574
				c0.418-0.278,0.644-0.632,0.68-1.062c0.025-0.299,0-0.611-0.075-0.937c-0.075-0.325-0.196-0.632-0.364-0.918
				c-0.168-0.285-0.384-0.527-0.649-0.727c-0.265-0.199-0.567-0.312-0.908-0.338c-0.563-0.033-1.045,0.042-1.461,0.328
				c-0.417,0.277-0.678,0.683-0.78,1.219c-0.028,0.242-0.003,0.478,0.074,0.704c0.077,0.228,0.187,0.445,0.329,0.652
				c-0.702-0.203-1.148-0.53-1.341-0.98c-0.192-0.45-0.198-0.977-0.022-1.577c0.236-0.764,0.707-1.299,1.404-1.606
				c0.699-0.316,1.488-0.333,2.394-0.189c0.413,0.07,0.825,0.201,1.239,0.392c0.413,0.192,0.784,0.428,1.113,0.707
				c0.33,0.279,0.607,0.602,0.834,0.967c0.226,0.365,0.366,0.758,0.419,1.175l0.775-0.194c-0.028-0.189-0.052-0.38-0.07-0.569
				c-0.019-0.189-0.021-0.378-0.009-0.565c0.028-0.431,0.171-0.786,0.43-1.066c0.257-0.281,0.623-0.404,1.099-0.368
				c0.257,0.025,0.522,0.105,0.795,0.237c0.272,0.14,0.509,0.31,0.71,0.512c0.202,0.202,0.368,0.436,0.499,0.702
				c0.129,0.266,0.191,0.521,0.182,0.764l-0.346,9.166c0.106,0.095,0.257,0.23,0.454,0.407c0.198,0.177,0.402,0.36,0.614,0.55
				c0.232,0.213,0.497,0.444,0.794,0.696l0.426-16.961c0,0,0.928,0.023,1.855,0.048c0.464,0.012,0.927,0.024,1.275,0.034
				C153.653,262.757,153.885,262.74,153.885,262.74z"/>
			<path stroke="#000000" stroke-width="0.2" stroke-miterlimit="10" d="M159.495,260.934l-2.546,0.063
				c-0.178-0.182-0.324-0.333-0.44-0.452c-0.117-0.119-0.209-0.234-0.278-0.345c-0.068-0.11-0.128-0.24-0.178-0.389
				c-0.05-0.149-0.096-0.345-0.138-0.588l-0.685-0.518c0.106,0.955,0.212,1.74,0.316,2.356c0.105,0.617,0.195,1.14,0.27,1.569
				c0.07,0.431,0.13,0.795,0.179,1.093c0.044,0.299,0.069,0.6,0.074,0.899c-0.246-0.651-0.479-1.203-0.697-1.657
				c-0.219-0.453-0.459-0.817-0.721-1.092c-0.261-0.275-0.564-0.473-0.908-0.596c-0.344-0.12-0.753-0.212-1.23-0.221
				c-0.19-0.005-0.357-0.005-0.5,0.001c-0.144,0.007-0.348-0.005-0.615-0.03l1.334,1.696c0.502-0.042,0.921,0.015,1.26,0.138
				c0.338,0.131,0.612,0.345,0.819,0.639c0.207,0.295,0.357,0.652,0.45,1.072c0.094,0.42,0.145,0.873,0.15,1.36l0.166,12.437
				l0.921,0.821c0.241,0.203,0.463,0.39,0.664,0.56c0.2,0.173,0.322,0.259,0.367,0.258l-0.451-17.354c0,0,1.05-0.026,2.101-0.053
				c0.524-0.016,1.05-0.03,1.443-0.041c0.393-0.031,0.654-0.052,0.654-0.052s-0.447-0.384-0.895-0.768
				C159.938,261.338,159.495,260.934,159.495,260.934z"/>
			<path stroke="#000000" stroke-width="0.2" stroke-miterlimit="10" d="M171.476,261.226c-0.193-0.146-0.409-0.307-0.646-0.484
				c-0.276-0.192-0.587-0.425-0.928-0.703c0-0.001-2.932,0.429-5.892,0.594c-1.478,0.102-2.951,0.256-4.062,0.291
				c-1.111,0.027-1.852,0.046-1.852,0.046l1.766,1.616c0,0.001,0.321,0.001,0.802-0.027c0.479-0.037,1.118-0.087,1.757-0.138
				c1.278-0.099,2.557-0.197,2.557-0.197c-0.94,1.257-1.712,2.602-2.305,4.029c-0.592,1.43-0.859,2.931-0.768,4.505
				c0.048,0.823,0.222,1.689,0.529,2.597c0.306,0.907,0.749,1.744,1.334,2.508s1.308,1.377,2.168,1.837
				c0.859,0.46,1.856,0.646,2.98,0.558c0.452-0.045,0.874-0.175,1.268-0.354c0.394-0.183,0.73-0.415,1.012-0.696
				c0.281-0.282,0.492-0.599,0.632-0.947c0.141-0.349,0.188-0.719,0.138-1.109c-0.032-0.261-0.124-0.514-0.271-0.76
				c-0.149-0.245-0.34-0.457-0.573-0.636c-0.233-0.178-0.488-0.315-0.763-0.412c-0.275-0.098-0.568-0.126-0.88-0.086
				c-0.271,0.035-0.53,0.115-0.78,0.242c-0.252,0.128-0.475,0.267-0.667,0.454c-0.193,0.184-0.348,0.394-0.463,0.628
				c-0.115,0.235-0.162,0.475-0.14,0.717c0.03,0.317,0.173,0.646,0.431,0.982s0.545,0.568,0.859,0.694
				c-0.037,0.059-0.108,0.104-0.214,0.129c-0.104,0.028-0.179,0.043-0.222,0.046c-0.621,0.049-1.19-0.09-1.703-0.417
				c-0.512-0.327-0.954-0.744-1.324-1.252c-0.37-0.507-0.659-1.045-0.869-1.612c-0.21-0.566-0.33-1.074-0.362-1.523
				c-0.079-1.086-0.055-2.117,0.065-3.096c0.121-0.979,0.375-1.882,0.759-2.712c0.383-0.828,0.923-1.58,1.617-2.254
				c0.697-0.657,1.568-1.285,2.614-1.867c0.423-0.226,0.856-0.428,1.302-0.608s0.907-0.292,1.388-0.335
				C171.77,261.453,171.67,261.371,171.476,261.226z"/>
			<path stroke="#000000" stroke-width="0.2" stroke-miterlimit="10" d="M186.682,256.883c0,0-1.083,0.253-2.708,0.631
				c-1.625,0.383-3.785,0.92-5.983,1.268c-2.189,0.393-4.373,0.827-6.035,0.992c-1.654,0.213-2.758,0.355-2.758,0.355l1.892,1.43
				l2.327-0.299l1.396,9.351c0,0,0.174,0.123,0.434,0.307c0.262,0.188,0.61,0.429,0.958,0.654c0.703,0.459,1.405,0.918,1.405,0.918
				c0.19-0.777,0.479-1.539,0.862-2.286c0.384-0.746,0.831-1.446,1.344-2.102c0.511-0.654,1.087-1.259,1.727-1.813
				c0.645-0.536,1.306-1.086,2.014-1.51c-0.041,1.494,0.084,2.956,0.394,4.386c0.249,1.156,0.596,2.244,1.047,3.267
				c0.451,1.021,0.947,2.057,1.493,3.104l1.389,0.224c-0.357-0.763-0.696-1.536-1.018-2.319c-0.324-0.781-0.577-1.583-0.766-2.407
				c-0.304-1.334-0.371-2.696-0.222-4.079c0.15-1.383,0.402-2.743,0.751-4.077l-3.438-1.42c-0.825,0.531-1.513,1.08-2.082,1.553
				c-0.568,0.474-1.094,0.959-1.577,1.456c-0.482,0.498-0.976,1.025-1.479,1.584c-0.503,0.558-1.111,1.168-1.826,1.831l-1.118-6.887
				c0,0,0.86-0.156,2.15-0.392c0.646-0.116,1.398-0.252,2.205-0.398c0.809-0.136,1.668-0.299,2.517-0.516
				c1.703-0.398,3.406-0.796,4.684-1.095c0.642-0.138,1.166-0.293,1.533-0.401c0.368-0.105,0.578-0.166,0.578-0.166
				s-0.523-0.281-1.048-0.563C187.204,257.19,186.682,256.883,186.682,256.883z"/>
			<path stroke="#000000" stroke-width="0.2" stroke-miterlimit="10" d="M203.551,251.278l-1.331,0.528
				c-0.303,0.121-0.538,0.15-0.706,0.085c-0.168-0.064-0.305-0.167-0.409-0.307s-0.204-0.292-0.298-0.457
				c-0.093-0.164-0.216-0.286-0.368-0.367c-0.207-0.119-0.422-0.221-0.644-0.304c-0.223-0.082-0.447-0.159-0.674-0.231
				c0.545,1.298,1.064,2.498,1.561,3.603s1.065,2.286,1.709,3.543c-0.159-0.198-0.51-0.508-1.044-0.931
				c-0.532-0.414-1.129-0.848-1.771-1.25c-0.642-0.405-1.256-0.75-1.843-1.035c-0.588-0.286-1.024-0.38-1.313-0.281
				c-0.433,0.148-0.817,0.38-1.157,0.693c-0.338,0.315-0.636,0.675-0.888,1.079c-0.257,0.4-0.452,0.839-0.602,1.266
				c-0.149,0.433-0.253,0.853-0.312,1.259c-0.215-0.366-0.494-0.696-0.836-0.989c-0.343-0.291-0.723-0.523-1.145-0.695
				s-0.858-0.282-1.309-0.328c-0.451-0.046-0.886-0.009-1.308,0.113l-1.65,0.476c-0.421,0.125-0.812,0.192-1.156,0.268
				c-0.347,0.071-0.522,0.098-0.527,0.079c0.005,0.019,0.112,0.095,0.323,0.229c0.213,0.134,0.447,0.281,0.705,0.443
				c0.258,0.156,0.602,0.375,1.021,0.604c0.518-0.154,0.999-0.298,1.444-0.431c0.443-0.138,0.859-0.208,1.249-0.213
				c0.391-0.005,0.77,0.086,1.138,0.272c0.368,0.188,0.746,0.518,1.133,0.993c-0.832,0.434-1.438,1.008-1.821,1.723
				c-0.385,0.716-0.55,1.413-0.491,2.089c0.06,0.675,0.347,1.236,0.87,1.681c0.522,0.446,1.278,0.604,2.264,0.478
				c0.311-0.03,0.595-0.137,0.851-0.317c0.254-0.181,0.478-0.4,0.665-0.659c0.187-0.259,0.34-0.538,0.46-0.836
				s0.201-0.579,0.245-0.846c0.203,0.177,0.422,0.334,0.663,0.491c0.242,0.154,0.493,0.276,0.758,0.365
				c0.264,0.089,0.535,0.13,0.813,0.124c0.277-0.005,0.555-0.075,0.833-0.21c0.666-0.327,1.133-0.68,1.4-1.06
				c0.267-0.378,0.392-0.754,0.379-1.125c-0.014-0.372-0.147-0.732-0.398-1.083c-0.252-0.35-0.565-0.655-0.939-0.913
				c-0.374-0.259-0.787-0.465-1.235-0.618c-0.448-0.154-0.876-0.221-1.283-0.2c-0.059-0.179-0.053-0.363,0.018-0.556
				c0.069-0.192,0.179-0.375,0.327-0.545c0.149-0.17,0.31-0.317,0.481-0.447c0.174-0.128,0.343-0.221,0.509-0.277
				c0.294-0.101,0.675-0.071,1.145,0.085c0.471,0.157,0.932,0.382,1.383,0.673c0.452,0.289,0.86,0.614,1.217,0.945
				c0.357,0.333,0.586,0.631,0.684,0.895l3.5,9.747c0.451,0.166,0.861,0.306,1.229,0.422c0.294,0.105,0.572,0.196,0.835,0.274
				c0.262,0.077,0.403,0.112,0.424,0.104l-6.119-15.794l3.91-1.553L203.551,251.278z"/>
		</g>
	</g>
</g>
<path fill="#FFD400" d="M154.931,216.682v-32.009l-0.042-0.125c6.531-0.879,11.589-6.444,11.589-13.223
	c0-6.861-5.099-12.469-11.715-13.305v-26.736c0,0,11.968-1.715,16.94-5.356l19.301,55.021
	C191.002,180.951,163.275,192.666,154.931,216.682"/>
<path fill="#FFD400" d="M151.138,216.682v-32.009l0.042-0.125c-6.574-0.879-11.589-6.444-11.589-13.223
	c0-6.861,5.099-12.469,11.673-13.305v-26.736c0,0-11.926-1.715-16.898-5.356l-19.3,55.021
	C115.066,180.951,142.752,192.666,151.138,216.682"/>
<path d="M84.977,98.709v96.964c0.876,0.502,4.453,2.557,9.482,5.486c16.73,9.701,49.726,28.813,54.942,31.668
	c0.005-0.14,0.009-0.307,0.009-0.496c-0.042-5.858-2.023-33.265-39.949-48.537l-0.337-0.125l0.126-0.336l19.642-59.251
	c-1.175-0.804-6.387-4.356-13.743-8.907C106.909,110.08,95.985,103.771,84.977,98.709"/>
<path fill="#231F20" d="M149.748,233.46c-3.456-1.758-65.192-37.573-65.192-37.573V98.063c22.419,10.209,44.796,25.9,44.796,25.9
	l-19.722,59.457C152.402,200.658,149.748,233.46,149.748,233.46 M84.177,97.477v98.619l0.211,0.126c0,0,61.652,35.816,65.192,37.572
	l0.548,0.293l0.042-0.586c0,0,0-0.418,0-1.172c0.042-5.965-2.135-33.715-40.057-49.103l19.619-59.14l0.084-0.293l-0.211-0.167
	c-0.042,0-22.419-15.69-44.88-25.9L84.177,97.477"/>
<path fill="#231F20" d="M84.977,195.673V98.709c11.008,5.063,21.932,11.371,30.173,16.467c7.356,4.551,12.567,8.103,13.743,8.907
	l-19.642,59.252l-0.126,0.334l0.337,0.127c37.927,15.271,39.907,42.678,39.949,48.535c0,0.191-0.005,0.358-0.009,0.498
	c-5.216-2.855-38.212-21.968-54.942-31.67C89.43,198.23,85.853,196.175,84.977,195.673 M84.556,98.063v97.824
	c0,0,61.736,35.815,65.192,37.573c0,0,2.655-32.803-40.118-50.043l19.722-59.456C129.351,123.962,106.975,108.272,84.556,98.063"/>
<path d="M221.092,98.69c-10.985,5.063-21.924,11.381-30.215,16.485c-7.432,4.598-12.643,8.173-13.733,8.931l19.675,59.228
	l0.084,0.336l-0.337,0.125c-37.885,15.272-39.907,42.679-39.907,48.537c0,0.19,0.006,0.353,0.01,0.496
	c3.398-1.869,18.561-10.623,33.324-19.158c7.922-4.562,15.76-9.121,21.617-12.51c5.053-2.943,8.605-5.002,9.482-5.496V98.69"/>
<path fill="#231F20" d="M156.279,233.46c0,0-2.655-32.803,40.16-50.043l-19.765-59.456c0,0,22.42-15.69,44.797-25.9v97.824
	C221.471,195.887,159.777,231.703,156.279,233.46l-0.169-0.336L156.279,233.46 M221.893,97.477l-0.59,0.251
	c-22.42,10.209-44.838,25.9-44.838,25.9l-0.254,0.167l0.127,0.293l19.613,59.126c-37.912,15.384-40.095,43.109-40.095,49.117
	c0,0.752,0.042,1.172,0.042,1.172l0.042,0.586l0.507-0.293c3.539-1.758,65.233-37.573,65.233-37.573l0.211-0.126L221.893,97.477"/>
<path fill="#231F20" d="M177.144,124.106c1.091-0.758,6.302-4.333,13.733-8.931c8.291-5.105,19.229-11.423,30.215-16.485v96.974
	c-0.877,0.492-4.43,2.551-9.482,5.494c-5.857,3.389-13.695,7.95-21.617,12.51c-14.764,8.537-29.926,17.291-33.324,19.16
	c-0.006-0.145-0.01-0.308-0.01-0.498c0-5.857,2.023-33.264,39.907-48.535l0.337-0.127l-0.084-0.334L177.144,124.106 M221.471,98.063
	c-22.377,10.209-44.797,25.9-44.797,25.9l19.765,59.457c-42.815,17.238-40.16,50.041-40.16,50.041
	c3.498-1.756,65.192-37.572,65.192-37.572V98.063"/>
<path fill="#72BF44" d="M109.985,110.647c0,0,4.921,3.468,19.427,8.447c13.775,4.714,22.686,8.047,23.566,8.378l0.014,0.037
	l0.042-0.019l0.023,0.019l0.019-0.037c0.876-0.33,9.792-3.663,23.566-8.378c14.521-4.979,19.433-8.447,19.433-8.447
	c17.951-10.79,15.793-24.695,15.793-24.695c-10.26-0.683-17.662,5.914-17.662,5.914c2.986-6.788,2.738-18.987,2.738-18.987
	c-10.703,2.803-16.982,11.702-16.982,11.702c1.113-10.456-2.057-17.666-2.057-17.666c-10.001,4.551-15.756,17.624-16.162,18.605
	c-0.201-1.376-0.422-2.696-0.722-3.924c-2.491-10.446-7.965-15.058-7.965-15.058h-0.066c0,0-5.474,4.612-7.96,15.058
	c-0.295,1.227-0.524,2.548-0.712,3.924c-0.421-0.981-6.167-14.054-16.173-18.605c0,0-3.17,7.211-2.056,17.666
	c0,0-6.27-8.898-16.973-11.702c0,0-0.243,12.199,2.73,18.987c0,0-7.393-6.597-17.671-5.914
	C94.178,85.952,92.029,99.857,109.985,110.647 M197.502,92.67c3.353-2.492,6.719-4.607,11.443-4.486c0,0,1.508,12.864-19.652,23.022
	c-15.797,7.596-18.297,7.345-18.297,7.345s10.328-7.215,15.185-13.059C191.032,99.639,194.145,95.152,197.502,92.67 M185.885,82.098
	c1.994-1.864,4.4-3.919,7.96-5.644c0,0,1.086,13.268-8.859,25.96C177.7,111.703,168.06,117.923,162,120.75
	c0,0,11.322-15.021,15.429-25.216C181.273,86.017,184.059,83.799,185.885,82.098 M176.352,70.643
	c1.409,5.137,1.24,17.09-2.243,25.379c-3.479,8.298-14.599,23.728-14.599,23.728c-0.496-0.99-0.328-4.314,0.67-8.122
	c0.996-3.822,1.82-7.136,2.486-18.336C163.415,80.624,176.352,70.643,176.352,70.643 M152.992,70.764h0.075
	c0.403,0.632,0.815,1.344,1.23,2.134c1.256,2.357,2.486,5.411,3.363,9.219c2.51,10.911,1.521,27.689-4.618,41.278h-0.033
	c-6.143-13.589-7.126-30.367-4.621-41.278C149.556,77.044,151.377,73.311,152.992,70.764 M129.707,70.643
	c0,0,12.928,9.981,13.682,22.65c0.665,11.199,1.489,14.514,2.496,18.336c0.983,3.807,1.152,7.132,0.665,8.122
	c0,0-11.125-15.43-14.595-23.728C128.457,87.733,128.288,75.78,129.707,70.643 M112.205,76.454c3.568,1.725,5.97,3.78,7.96,5.644
	c1.826,1.702,4.631,3.919,8.466,13.436c4.116,10.195,15.424,25.216,15.424,25.216c-6.054-2.827-15.7-9.047-22.976-18.336
	C111.128,89.722,112.205,76.454,112.205,76.454 M97.109,88.183c4.724-0.121,8.091,1.994,11.448,4.486
	c3.362,2.483,6.462,6.969,11.317,12.822c4.856,5.844,15.18,13.059,15.18,13.059s-2.491,0.251-18.284-7.345
	C95.606,101.047,97.109,88.183,97.109,88.183"/>
<path fill="#00AEEF" d="M153.034,1.828c-82.849,0-150.021,67.155-150.021,150s67.172,150,150.021,150s149.979-67.154,149.979-150
	S235.883,1.828,153.034,1.828 M153.034,293.878c-78.424,0-142.014-63.599-142.014-142.05c0-78.452,63.591-142.05,142.014-142.05
	s142.013,63.598,142.013,142.05C295.047,230.28,231.458,293.878,153.034,293.878"/>
<path d="M98.846,245.231c0.225,0.13,0.45,0.256,0.674,0.381l-0.005-0.019L98.846,245.231"/>
<path d="M32.133,164.548l-1.981,3.18c0.843,1.255,1.306,2.552,1.559,3.891c0.211,1.088,0.253,2.135,0.084,3.264
	c-0.211,1.34-0.759,2.093-1.559,2.302l-0.969-0.293c-0.295-1.591-0.801-3.515-1.18-5.774l-0.656-4.834
	c-0.417,0.381-1.002,1-1.789,1.863l-0.243-2.105l-0.009,0.014c0.927,9.205,3.413,18.158,6.237,26.904
	c0.59-1.465,0.969-2.47,1.138-2.972c-0.253-0.962-0.59-2.092-1.011-3.431c-0.379-1.34-0.885-2.846-1.349-4.561
	c1.32,1.105,2.767,1.627,4.275,1.627c0.66,0,1.325-0.099,2.004-0.289c1.096-0.334,1.938-0.961,2.528-2.008
	c0.59-0.962,0.759-2.008,0.506-3.18c-0.084-0.544-0.464-1.255-1.096-2.176c-0.59-0.92-0.927-1.549-1.011-1.842l0.337-0.961
	l0.927-0.629c0.108-0.022,0.215-0.033,0.323-0.033c0.693,0,1.391,0.457,2.121,1.289c0.716,0.836,1.138,1.674,1.349,2.636
	c0.421,2.259-0.421,4.269-2.739,6.36c-1.686,1.463-3.793,2.719-6.363,3.808l-0.126,1.757l2.655-0.879
	c2.613-0.795,4.846-2.344,6.743-4.436c2.318-2.51,3.034-4.895,2.528-7.447c-0.337-1.633-1.096-2.93-2.318-3.891
	c-0.96-0.759-2.027-1.125-3.221-1.125c-0.323,0-0.651,0.022-0.993,0.078c-0.801,0.168-1.686,0.67-2.697,1.549
	c-1.138,0.961-1.643,1.84-1.475,2.635c1.517,1.758,2.444,3.265,2.697,4.562c0.211,0.962,0,1.507-0.674,1.716
	c-0.206,0.055-0.449,0.084-0.73,0.084c-0.585,0-1.325-0.121-2.177-0.377c-1.433-0.378-2.276-0.838-2.528-1.382l0.126-0.209
	c2.276-2.803,2.95-5.858,2.36-9.414l-0.126-0.962c1.002,0.381,2.177,0.576,3.493,0.576c0.843,0,1.747-0.079,2.702-0.242
	c2.613-0.418,4.973-1.297,7.122-2.51l0.253-1.967c-1.896,1.213-3.666,1.967-5.31,2.218c-0.693,0.103-1.377,0.153-2.051,0.153
	C37.157,167.085,34.619,166.283,32.133,164.548"/>
<path d="M26.528,154.966L26.5,155c0.023,0.566,0.047,1.11,0.07,1.641c-0.337,0.46-0.927,1.339-1.896,2.636
	c0-0.028-0.005-0.056-0.005-0.084l-1.934,0.837l-1.054,1.674c3.961-1.088,6.195-1.59,6.574-1.674
	c-2.107,1.758-2.992,3.516-2.95,5.23l0.094,0.781l1.634-2.707l0.398,2.947c0.009-0.005,0.014-0.014,0.023-0.019
	c-0.159-1.433-0.281-2.181-0.258-2.181c0,0,0.005,0,0.005,0.006c0.421-1.213,1.054-2.092,1.896-2.594
	c0.632-0.336,1.643-0.586,2.95-0.711l12.769-1.131l2.065-2.218l-20.185,1.381L26.528,154.966"/>
<path d="M27.034,163.333l-1.634,2.707l0.243,2.105c0.787-0.865,1.372-1.482,1.789-1.863L27.034,163.333"/>
<path d="M36.028,134.418c-1.592,0-3.086,0.456-4.528,1.385c-2.065,1.297-2.95,3.138-3.076,5.481
	c-0.084,1.674,0.253,3.096,1.011,4.184c0.759,1.255,1.896,1.883,3.287,1.925c0.927,0,1.77-0.377,2.486-1.13
	c0.759-0.753,1.138-1.59,1.18-2.552c0.042-0.92-0.211-1.715-0.801-2.469c-0.59-0.711-1.264-1.13-2.107-1.213
	c-0.061-0.005-0.126-0.005-0.187-0.005c-0.688,0-1.334,0.214-1.878,0.674l-0.126-0.837c0.084-1.213,0.59-2.176,1.854-2.845
	c0.913-0.525,1.826-0.786,2.739-0.786c0.183,0,0.365,0.014,0.548,0.033c1.391,0.167,2.36,0.962,3.118,2.343
	c0.716,1.255,1.054,2.594,0.969,4.1c-0.126,2.678-1.77,4.895-5.015,7.029c-1.138,0.795-2.402,1.548-3.793,2.301l-4.046,2.049
	l-0.421,1.968c4.088-1.298,7.501-2.929,10.24-4.854c3.793-2.678,6.026-5.565,6.153-9.038c0.126-1.841-0.632-3.515-1.812-5.021
	c-1.222-1.506-2.739-2.385-4.551-2.636C36.852,134.446,36.436,134.418,36.028,134.418 M27.731,131.712l-2.294,1.994
	c0,0.005,0,0.005,0,0.009c0.164,0.005,0.332,0.014,0.501,0.037l-0.379,2.51l-0.384-0.344c-0.843,7.727-0.983,15.532-0.506,23.273
	h0.005l-0.084-2.05l1.91-2.144c-0.126-2.748-0.253-5.927,0.028-9.572C26.682,140.843,26.977,136.263,27.731,131.712"/>
<path d="M26.5,155l-1.91,2.143l0.084,2.05h-0.005c0,0.028,0.005,0.056,0.005,0.084c0.969-1.297,1.559-2.176,1.896-2.636
	C26.547,156.11,26.523,155.566,26.5,155"/>
<path d="M29.422,122.326c-0.379,0-1.316,0.758-2.599,2.39c0.108-0.46,0.211-0.921,0.318-1.381c-0.019,0.014-0.047,0.028-0.066,0.042
	c-0.211,0.586-0.337,1.381-0.421,2.427c-3.203,0.251-5.858,1.506-8.007,3.808c-2.149,2.343-3.793,5.607-3.877,9.707
	c-0.126,2.008,0.084,3.933,0.506,5.69c0.632,2.343,1.601,3.515,2.95,3.515c0.019,0,0.042,0,0.061,0c2.238,0,3.568-2.301,4.027-6.82
	c0.211-1.841,0.337-3.096,0.421-3.808c0.164-1.92,0.852-2.803,1.475-2.803c0.014,0,0.028,0,0.042,0l0.922,0.828
	c0.08-0.735,0.169-1.469,0.262-2.204c-0.07-0.005-0.136-0.009-0.201-0.009c-2.678,0-4.635,2.041-4.987,6.281l-0.337,3.891
	c-0.253,1.967-0.716,2.929-1.348,2.929c-0.674-0.042-1.18-1.088-1.475-3.222c-0.211-1.548-0.253-3.013-0.211-4.393
	c0.084-3.222,1.348-5.9,3.076-7.992c1.728-2.092,3.877-3.138,6.321-3.18c-0.253,1.339-0.548,3.222-0.843,5.69l0.005-0.005
	c0.037-0.316,0.08-0.637,0.122-0.958l2.402-2.343c-0.08,0.437-0.155,0.869-0.229,1.306l0.061-0.051l0.464-3.138l17.446,3.222
	l2.866-1.757l-19.933-3.766c0.15-1.311,0.435-2.617,0.796-3.896C29.426,122.326,29.426,122.326,29.422,122.326"/>
<path d="M25.437,133.716c-0.094,0.735-0.183,1.469-0.262,2.204l0.384,0.344l0.379-2.51C25.769,133.73,25.601,133.72,25.437,133.716
	 M27.961,130.406l-2.402,2.343c-0.042,0.321-0.084,0.642-0.122,0.958l2.294-1.994C27.806,131.275,27.881,130.843,27.961,130.406"/>
<path d="M46.966,117.937c-0.361,0-0.716,0.112-1.054,0.335c-0.506,0.377-0.843,0.837-1.011,1.423
	c-0.126,0.544-0.042,1.088,0.253,1.59c0.337,0.502,0.716,0.837,1.264,0.962c0.183,0.056,0.365,0.084,0.548,0.084
	c0.365,0,0.73-0.112,1.096-0.335c0.506-0.335,0.843-0.795,0.969-1.381c0.169-0.502,0.084-1.046-0.253-1.59
	c-0.337-0.502-0.716-0.837-1.264-1.004C47.331,117.965,47.149,117.937,46.966,117.937 M30.995,116.138
	c-0.042-0.084,0.126-0.753,0.464-2.05c0.253-1.381,1.011-3.347,2.065-5.983l14.454,5.063c-3.287,0.711-6.237,2.469-8.26,5.439
	c-1.391-2.678-2.444-4.812-2.866-6.234c-1.011,0.293-2.107,0.795-3.161,1.59C33.144,114.339,32.259,115.05,30.995,116.138
	 M35.588,102.665l-2.781,1.59c-2.519,6.132-4.153,12.599-5.666,19.079c0.44-0.265,1.255-0.786,2.421-1.464
	c-0.047,0.149-0.089,0.302-0.131,0.456c0.019,0,0.033,0,0.047,0.005l0.169,0.167c2.571-4.1,4.256-6.527,5.141-7.406
	c1.686,4.1,2.781,6.569,3.245,7.741l3.329-1.423c1.306-3.138,2.739-5.146,4.846-5.816l5.773-1.925l0.379-0.042l-0.253,0.251
	l1.306-0.753l-19.216-7.113C34.324,105.929,34.787,104.841,35.588,102.665"/>
<path d="M29.562,121.87c-1.166,0.679-1.981,1.199-2.421,1.464c-0.108,0.46-0.211,0.92-0.318,1.381
	c1.283-1.632,2.219-2.39,2.599-2.39c0.005,0,0.005,0,0.009,0C29.473,122.172,29.515,122.019,29.562,121.87"/>
<path d="M49.115,69.15c-3.118,0.879-5.52,1.799-7.08,2.636c-2.613,1.255-4.425,3.222-5.815,5.481
	c-1.096,1.757-1.686,3.891-1.728,6.276c-0.084,2.594,0.801,4.351,2.107,5.063c0.309,0.153,0.702,0.228,1.18,0.228
	c0.571,0,1.264-0.107,2.065-0.311c-0.632,1.213-1.475,2.971-2.528,5.272l2.866-1.297l1.601-3.305l15.803,8.619l2.823-0.753
	L43.047,87.1l1.643-2.706c-0.342,0.102-1.339,0.474-2.992,1.074l0.412-0.697c-0.337,0.456-0.754,1.125-1.255,2.036
	c-0.969-0.042-1.643-0.125-2.023-0.335c-1.011-0.586-1.475-1.883-1.306-3.975c0.126-1.925,0.632-3.556,1.433-4.895
	c1.854-3.305,6.068-5.732,11.589-7.322L49.115,69.15"/>
<path d="M58.471,65.719l-0.023,0.005l-0.735,0.79c-0.543,0.084-1.583,0.288-3.156,0.535l-0.258,0.302l-1.222-1.046l-2.613,0.879
	l5.563,4.519c-0.468-0.046-0.913-0.07-1.334-0.07c-2.201,0-3.765,0.632-4.65,1.827c-0.464,0.628-0.716,1.59-0.759,2.845
	c0,1.046,0.126,2.008,0.379,2.845c-0.342-0.033-0.665-0.046-0.974-0.046c-2.149,0-3.577,0.753-4.462,2.18l-1.812,2.971l-0.304,0.516
	c0.005-0.005,0.005-0.009,0.009-0.014c0.548-0.209,1.517-0.544,2.908-0.92l-0.337,0.558c0.014-0.005,0.028-0.009,0.042-0.014
	l0.59-1.004c0.506-0.837,1.096-1.464,1.77-1.799c0.506-0.293,1.264-0.502,2.318-0.628c-0.084,1.004,0,2.008,0.337,3.096
	c0.337,1.213,0.843,2.008,1.475,2.427c0.346,0.218,0.688,0.325,1.058,0.325c0.262,0,0.538-0.056,0.838-0.158
	c0.674-0.209,1.222-0.669,1.601-1.297c0.59-1.088,0.759-2.259,0.421-3.598c1.475-0.084,2.486-0.586,3.161-1.423
	c1.011-1.381,0.716-2.678-0.969-3.975c-0.262-0.181-0.656-0.284-1.18-0.284c-0.318,0-0.684,0.037-1.096,0.116l-2.444,0.837
	c-0.506-1.13-0.421-2.134,0.211-3.013c0.337-0.418,1.222-0.67,2.655-0.711c0.243-0.014,0.468-0.023,0.679-0.023
	c1.007,0,1.662,0.158,1.976,0.4l10.156,8.159c0.562-0.135,1.171-0.214,1.873-0.214c0.412,0,0.852,0.028,1.33,0.088L55.858,68.648
	L58.471,65.719"/>
<path d="M45.028,83.837c-1.391,0.377-2.36,0.711-2.908,0.921c-0.005,0.005-0.005,0.009-0.009,0.014l-0.412,0.697
	c1.653-0.6,2.65-0.972,2.992-1.074L45.028,83.837"/>
<path d="M69.39,59.453c0.136,0,0.276,0,0.417-0.009c1.601-0.126,3.034-0.711,4.298-1.799l4.551,5.314
	c-0.894-0.302-1.803-0.47-2.716-0.47c-0.595,0-1.194,0.07-1.793,0.218c-1.18-1.255-2.697-1.925-4.593-1.967
	c-0.094,0-0.187-0.005-0.286-0.005c-1.648,0-3.437,0.353-5.108,1.302l-0.169,0.125c-0.843-0.167-1.475-0.335-1.896-0.418l1.433-1.59
	l2.149-1.967C66.749,59.062,67.999,59.453,69.39,59.453 M69.488,57.551c-0.773,0-1.381-0.265-1.873-0.786l-0.042-0.251l1.348-1.255
	l1.77-1.59l2.065,2.427l-0.253,0.209c-0.716,0.669-1.559,1.046-2.528,1.213C69.806,57.542,69.647,57.551,69.488,57.551
	 M77.898,45.427c-8.807,6.067-16.351,13.682-23.388,21.632c0.014-0.005,0.028-0.005,0.047-0.009l0.67-0.786l3.221-0.539l0.276-0.298
	l1.348-1.464c0.745-0.07,1.32-0.102,1.751-0.102c0.351,0,0.609,0.023,0.777,0.06c-0.927,1.464-0.885,2.636,0.126,3.556
	c0.548,0.502,1.222,0.753,2.023,0.795c0.052,0.005,0.098,0.005,0.15,0.005c0.73,0,1.316-0.293,1.831-0.841
	c0.464-0.502,0.716-1.088,0.716-1.799c0-0.669-0.253-1.255-0.674-1.715l-0.421-0.377l0.126-0.209l0.126-0.125
	c0.632-0.586,1.433-0.92,2.36-0.962c0.885,0,1.643,0.251,2.191,0.879l0.421,0.502c-0.759,0.544-1.222,1.213-1.433,2.092
	c-0.211,0.837,0,1.59,0.59,2.176c0.464,0.423,0.997,0.632,1.667,0.632c0.061,0,0.122,0,0.187-0.005c0.716,0,1.391-0.209,1.896-0.711
	c1.054-0.962,1.349-2.05,0.927-3.264c0.314-0.033,0.613-0.046,0.904-0.046c1.292,0,2.397,0.298,3.395,0.841l3.54,2.092l0.843,0.084
	l1.011,0.042l-9.566-11.548l0.885-0.879c0.843-0.67,1.77-1.088,2.655-1.255c0.253-0.046,0.487-0.07,0.707-0.07
	c0.74,0,1.306,0.265,1.695,0.781l0.126,0.209l0.042,0.126c-0.187-0.06-0.379-0.088-0.571-0.088c-0.501,0-1.021,0.195-1.536,0.59
	c-0.506,0.377-0.843,0.879-0.969,1.506c-0.126,0.628,0,1.13,0.337,1.59c0.421,0.544,1.054,0.795,1.812,0.837
	c0.066,0.005,0.131,0.005,0.197,0.005c0.716,0,1.33-0.209,1.868-0.59c0.843-0.669,1.306-1.464,1.264-2.469
	c0.042-0.879-0.295-1.757-0.927-2.636c-0.749-1.055-1.826-1.599-3.198-1.599c-0.098,0-0.197,0.005-0.3,0.009
	c-1.433,0-2.823,0.544-4.088,1.506l-1.222,1.13l-2.065-2.469l6.86-5.193c-0.548-0.205-1.386-0.414-2.477-0.665l1.269-0.962h-0.002"
	/>
<path d="M58.447,65.724l-3.221,0.539l-0.67,0.786c1.573-0.246,2.613-0.451,3.156-0.535L58.447,65.724"/>
<path d="M80.384,39.82c2.866,2.971,4.383,4.644,4.593,4.979c-1.339-0.544-2.533-0.809-3.573-0.809c-0.95,0-1.77,0.223-2.454,0.642
	l-1.049,0.795l3.029,0.251l-1.821,1.376c0.005,0.005,0.005,0.005,0.009,0.005c1.222-0.92,1.812-1.339,1.77-1.339
	c0.356-0.06,0.698-0.088,1.021-0.088c0.819,0,1.536,0.186,2.14,0.549c0.674,0.418,1.349,1.172,2.065,2.301l7.122,10.669l2.95,0.795
	L85.314,42.832l3.287-2.008l-0.028-0.005c-0.482,0.288-0.979,0.581-1.489,0.883c-0.548-0.042-1.559-0.209-3.118-0.418
	c0.009-0.005,0.014-0.009,0.023-0.014l-1.625-1.367L80.384,39.82"/>
<path d="M77.902,45.427l-1.269,0.962c1.091,0.251,1.929,0.46,2.477,0.665l1.821-1.376L77.902,45.427"/>
<path d="M95.849,45.092c1.644-2.845,3.54-5.146,5.436-7.071l4.214,9.121c-2.219-1.376-4.842-2.162-7.745-2.162
	C97.132,44.98,96.496,45.017,95.849,45.092 M107.443,29.485c-8.246,3.022-16.065,7.113-23.454,11.785l0.019,0.014l1.728-1.088
	l2.837,0.623c1.409-0.837,2.716-1.622,3.905-2.338l7.543-3.682l0.379,0.795c-3.582,3.222-6.49,6.987-8.302,11.716l3.582,1.004
	c1.049-0.483,2.257-0.702,3.559-0.702c0.946,0,1.943,0.116,2.973,0.325c2.233,0.46,4.13,1.255,5.773,2.427
	c-0.632-0.149-1.264-0.229-1.878-0.229c-0.412,0-0.81,0.037-1.199,0.102c-0.632,0.126-1.644,0.46-3.034,1.004
	c-2.032,0.735-3.348,1.302-4.153,1.302c-0.248,0-0.45-0.056-0.609-0.172c-0.759-0.502-1.306-1.046-1.644-1.59l-0.632-1.088
	c-0.042,0-0.632-0.042-1.77-0.167l0.084,0.711l0.548,0.92c0.379,0.544,0.59,0.837,0.632,0.879c1.025,1.72,2.322,2.529,3.933,2.529
	c1.171,0,2.51-0.423,4.031-1.232c1.728-0.837,2.992-1.339,3.793-1.59c0.73-0.232,1.339-0.344,1.84-0.344
	c0.773,0,1.274,0.27,1.531,0.804l0.59-0.167l-6.7-15.146c0.73-0.349,1.512-0.516,2.327-0.516c0.651,0,1.325,0.102,2.013,0.307
	c1.559,0.46,2.571,1.297,3.034,2.469l0.084,0.544c-0.262-0.098-0.534-0.153-0.819-0.153c-0.309,0-0.641,0.065-0.993,0.195
	c-0.674,0.251-1.18,0.67-1.475,1.297c-0.337,0.628-0.337,1.255-0.084,1.841c0.253,0.628,0.716,1.004,1.475,1.255
	c0.356,0.125,0.707,0.186,1.049,0.186s0.679-0.06,1.016-0.186c0.969-0.377,1.601-1.004,1.896-1.967
	c0.295-0.879,0.295-1.799-0.084-2.761c-0.632-1.715-1.981-3.18-4.13-4.351c-1.377-0.721-2.711-1.116-3.957-1.116
	c-0.847,0-1.658,0.181-2.407,0.572l-0.295-0.628c0-0.042,1.433-0.962,4.635-2.05c1.555-0.563,2.72-0.981,3.502-1.246L107.443,29.485
	"/>
<path d="M85.736,40.196l-1.728,1.088l-0.019-0.014c-0.009,0.005-0.014,0.009-0.023,0.014c1.559,0.209,2.571,0.377,3.118,0.418
	c0.51-0.302,1.007-0.595,1.489-0.883L85.736,40.196"/>
<path d="M128.593,39.569c-1.138-1.13-2.613-2.176-4.383-3.18c-0.632-2.427-3.287-5.063-8.512-7.741l9.903-2.552L128.593,39.569
	 M128.677,23.376c-7.206,1.548-14.37,3.347-21.239,6.109h0.005c0.309-0.112,0.613-0.223,0.922-0.335
	c1.981,0.544,2.908,0.92,2.992,1.088c-0.005-0.005-0.014-0.009-0.028-0.009c-0.108,0-0.506,0.121-1.189,0.353l0.29,0.116
	l0.084-0.042c0.801,0.335,1.77,0.586,2.992,0.711l3.076,0.335c2.655,0.586,4.13,1.548,4.467,2.887l0.084,0.46l-1.138,0.126
	c-1.054,0.251-1.938,0.753-2.613,1.757c-0.716,1.046-0.927,2.008-0.632,2.929c0.295,0.795,0.843,1.423,1.728,1.841
	c0.543,0.242,1.082,0.363,1.639,0.363c0.304,0,0.613-0.037,0.932-0.112c0.59-0.125,1.264-0.544,1.896-1.172
	c0.674-0.628,1.054-1.255,1.054-1.841c0.047-0.005,0.098-0.005,0.15-0.005c0.904,0,2.074,0.711,3.39,2.18
	c0.843,0.962,1.728,2.092,2.571,3.515l1.728,0.669l-4.003-19.749l3.456-0.544L128.677,23.376"/>
<path d="M108.365,29.15c-0.309,0.112-0.613,0.223-0.922,0.335l2.697,1.097c0.684-0.232,1.082-0.353,1.189-0.353
	c0.014,0,0.023,0.005,0.028,0.009C111.273,30.071,110.346,29.694,108.365,29.15"/>
<path d="M157.456,22.144c-1.977,0-3.694,0.242-5.137,1.065c-2.107,1.088-3.076,2.552-2.992,4.435c0,0.837,0.337,1.506,0.927,2.05
	c0.585,0.507,1.245,0.758,2.079,0.758c0.066,0,0.131,0,0.197-0.005c1.559-0.084,2.318-0.628,2.36-2.008
	c0-1.004-0.507-1.674-1.517-2.008c1.288-1.432,3.221-2.148,5.773-2.148c0.206,0,0.417,0.005,0.632,0.014
	c2.191,0.125,3.203,0.962,3.076,2.552c-0.084,0.837-0.632,1.548-1.686,2.176c-0.76-0.502-1.476-0.711-2.191-0.753
	c-0.057-0.005-0.111-0.005-0.169-0.005c-0.613,0-1.188,0.209-1.771,0.59c-0.632,0.418-0.927,0.962-0.927,1.548
	c-0.042,0.669,0.211,1.297,0.716,1.799c0.506,0.502,1.139,0.753,1.896,0.795c0.066,0.005,0.136,0.005,0.201,0.005
	c0.59,0,1.119-0.167,1.611-0.507c0.758,0.628,1.053,1.339,1.01,2.176c-0.041,0.837-0.463,1.548-1.18,2.092
	c-0.664,0.544-1.441,0.8-2.257,0.8c-0.062,0-0.126,0-0.187-0.005c-3.961-0.335-6.827-2.343-8.851-6.485
	c-1.096-2.427-1.896-4.059-2.318-4.937c-0.843-1.674-1.896-2.803-3.203-3.305c1.264,4.393,2.823,8.117,4.635,11.088
	c2.697,4.351,5.563,6.402,9.018,6.695c0.123,0.005,0.239,0.009,0.356,0.009c1.419,0,2.688-0.46,3.815-1.348
	c1.223-1.004,1.896-2.301,2.065-3.808c0.126-1.423-0.295-2.678-1.222-3.808c1.222-0.879,1.98-2.427,2.148-4.644
	c0.17-1.464-0.379-2.636-1.601-3.556c-1.054-0.753-2.485-1.213-4.298-1.297C158.124,22.149,157.788,22.144,157.456,22.144"/>
<path d="M198.729,31.475l0.684,0.256c-0.004-0.009-0.014-0.014-0.019-0.023C199.372,31.703,199.146,31.628,198.729,31.475
	 M185.609,33.251c0.169-0.879,0-1.757-0.421-2.594c-0.464-0.837-1.18-1.464-2.107-1.841c0.899-0.804,1.967-1.204,3.146-1.204
	c0.479,0,0.979,0.065,1.488,0.2c1.687,0.46,2.951,1.297,3.541,2.803C189.36,31.368,187.463,32.372,185.609,33.251 M196.734,25.343
	l-2.401,6.862c-0.295-1.381-0.886-2.678-1.854-3.933c-1.011-1.423-2.276-2.134-3.708-2.51c-0.712-0.195-1.494-0.293-2.327-0.293
	c-1.138,0-2.368,0.181-3.657,0.544c-2.486,0.711-3.834,1.757-4.088,3.096c-0.169,0.795,0.295,1.506,1.391,2.05l2.277-0.335
	c1.137,0.544,1.559,1.464,1.221,2.72c-0.084,0.418-0.463,0.837-1.053,1.213l-1.517,0.753c1.138,0.711,2.022,1.297,2.571,1.841
	c2.822-1.506,5.814-3.054,8.807-4.184l0.716,2.134l-4.046,11.715l1.434,2.427l6.826-18.494c-0.125-0.544-0.421-1.381-0.843-2.427
	l2.511,0.92l-0.023-0.042l-1.307-0.46l0.295-1.423L196.734,25.343"/>
<path d="M197.325,30.95c0.594,0.223,1.063,0.4,1.404,0.525L197.325,30.95 M204.067,27.937c-0.885,3.975-1.434,6.192-1.559,6.611
	c-0.59-2.678-1.729-4.31-3.287-5.021l-0.229-0.084l1.577,2.72l-1.155-0.432c0.871,0.953,1.324,1.906,1.366,2.859
	c0.042,0.753-0.169,1.757-0.716,2.971l-4.93,11.841l1.011,2.845l8.175-18.536l1.868,0.907l-1.362-2.831
	c0.701,0.321,1.357,0.628,1.967,0.911l-0.028-0.074l-1.896-0.879l0.211-2.134L204.067,27.937"/>
<path d="M196.482,28.523c0.421,1.046,0.716,1.883,0.843,2.427l1.405,0.525c0.417,0.153,0.642,0.228,0.665,0.232
	c0.005,0.009,0.014,0.014,0.02,0.023l1.155,0.432l-1.577-2.72L196.482,28.523"/>
<path d="M207.799,52.874c-0.834,0-1.615-0.214-2.383-0.586c-0.844-0.418-1.392-1.004-1.687-1.757
	c-0.337-0.795-0.253-1.59,0.126-2.385c0.126-0.251,0.632-0.46,1.475-0.586c2.613-0.418,4.51-0.795,5.479-1.13
	c1.602-0.586,3.033-1.715,4.172-3.473c0.379,2.343-0.084,4.561-1.348,6.569c-0.801,1.339-2.023,2.301-3.666,2.887
	C209.194,52.73,208.478,52.874,207.799,52.874 M217.14,25.045c-1.854,0.484-3.015,1.32-3.634,2.515
	c-0.506,1.046-0.715,2.385-0.674,4.017c0,0.46,0.17,1.883,0.422,4.184c-0.084,0-0.801-0.377-2.149-1.004
	c-1.044-0.502-2.472-1.195-4.312-2.059l0.982,2.687l-1.587-0.767l0.028,0.056l7.585,3.682c-0.126,1.13-0.38,2.092-0.843,2.887
	c-0.801,1.423-2.107,2.385-4.047,3.054c-1.235,0.428-2.453,0.642-3.676,0.642c-0.57,0-1.143-0.046-1.718-0.139
	c-0.759,0.628-1.306,1.297-1.687,2.008c-0.631,1.381-0.59,2.761,0.043,4.226c0.59,1.339,1.559,2.301,2.949,2.971
	c1.203,0.688,2.393,1.051,3.61,1.051c0.787,0,1.587-0.153,2.416-0.465c1.896-0.669,3.498-1.967,4.72-3.933
	c0.885-1.381,1.391-3.054,1.518-5.105c0.125-1.967-0.084-3.808-0.633-5.607l6.869,4.184c-0.506-1.464-0.843-2.469-1.054-3.013
	c-2.149-1.339-3.793-2.385-4.888-3.054c-0.969-0.544-1.518-0.879-1.687-1.004c-0.758-3.975-1.053-6.402-0.421-7.573
	c0.506-1.004,1.896-1.674,4.299-1.925l-1.498-2.036C217.767,25.361,217.45,25.203,217.14,25.045"/>
<path d="M217.636,24.924c-0.173,0.037-0.337,0.079-0.496,0.121c0.31,0.158,0.627,0.316,0.937,0.479L217.636,24.924"/>
<path d="M204.825,31.786l1.362,2.831l1.587,0.767l-0.982-2.687C206.183,32.414,205.528,32.107,204.825,31.786"/>
<path d="M223.706,41.912c-0.043,0.084,0,0.628,0.168,1.632c0.084,0.669,0.211,1.046,0.338,1.13l0.084,0.042l2.359,1.757
	c1.434,1.046,2.191,1.632,2.318,1.715c-0.08-0.009-0.159-0.014-0.248-0.014c-0.684,0-1.573,0.302-2.66,0.934
	c-1.096,0.586-1.854,1.213-2.318,1.841c-0.59,0.837-1.306,2.218-2.148,4.142c-0.844,1.925-1.559,3.264-2.191,4.1
	c-0.758,1.046-1.77,1.632-3.076,1.715c-0.145,0.019-0.289,0.023-0.435,0.023c-0.955,0-1.929-0.335-3.062-0.734l0.463,1.632
	c1.584,0.386,2.904,0.563,3.934,0.563c0.206,0,0.398-0.005,0.576-0.019c1.602-0.167,2.908-0.879,3.919-2.218
	c0.674-0.92,1.56-2.385,2.528-4.435c0.969-2.05,1.77-3.556,2.443-4.477c0.59-0.753,1.854-1.381,3.836-1.841l1.391,1.046
	c0.389,0.279,0.688,0.497,0.918,0.66c-0.043-0.158-0.084-0.363-0.117-0.618c-0.126-0.962-0.084-1.59,0.169-1.925
	c-0.169-0.167-1.687-1.297-4.551-3.389C225.98,43.293,224.379,42.288,223.706,41.912"/>
<path d="M247.29,64.785l0.014,0.019c0-0.005,0-0.005,0-0.005L247.29,64.785 M240.603,60.28l-6.237-0.209
	c0.549-0.753,0.801-1.59,0.801-2.552s-0.379-1.841-1.011-2.594c0.421-0.116,0.833-0.177,1.236-0.177c1.175,0,2.28,0.488,3.315,1.39
	C239.971,57.351,240.645,58.732,240.603,60.28 M233.313,52.051c-1.55,0-2.669,0.474-3.287,1.241
	c-0.548,0.669-0.379,1.423,0.379,2.343c0.885,0.167,1.559,0.46,2.191,0.711c0.759,1.046,0.716,2.05-0.126,3.054
	c-0.296,0.293-0.802,0.502-1.476,0.586l-1.686-0.042c0.674,1.172,1.18,2.134,1.434,2.845l9.776,0.167l-0.295,2.259l-7.908,7.666
	c-0.037,1.097-0.342,2.004-0.876,2.738l0.061,1.06l14.371-13.431l1.071,1.162l-0.019-0.033c-0.043-0.544-0.127-1.632-0.211-3.18
	c0.281,0.293,0.562,0.586,0.843,0.879l-0.464-0.502l0.885-1.172l-0.084-2.51l-5.227,5.063c0.379-1.339,0.465-2.845,0.084-4.268
	c-0.379-1.632-1.138-2.929-2.19-3.891c-1.306-1.213-3.161-2.092-5.394-2.552C234.493,52.112,233.874,52.051,233.313,52.051"/>
<path d="M227.648,76.448c-0.22,0-0.491-0.051-0.829-0.158c-0.674-0.209-1.138-0.418-1.391-0.67c-0.549-0.502-0.633-0.92-0.211-1.339
	l0.969-0.251l1.012,0.544c0.547,0.502,0.885,1.046,0.969,1.674l-0.043,0.042C228.018,76.397,227.864,76.448,227.648,76.448
	 M225.733,71.892c-0.716,0-1.349,0.302-1.863,0.883c-0.59,0.586-0.802,1.381-0.717,2.301c0.043,0.92,0.422,1.632,1.012,2.218
	c1.049,0.851,2.051,1.325,3.164,1.325c0.365,0,0.74-0.051,1.133-0.153c0.295,3.473,0.17,6.234-0.295,8.494l1.981-2.385
	c0.253-2.427,0.295-4.77,0.084-6.946l0.759-0.544c0.164-0.163,0.309-0.335,0.444-0.516l-0.108-1.785l0.983-0.953
	c0.009-0.26,0.005-0.525-0.015-0.804l-0.59,0.502l-0.547,0.46l-0.422,0.753l-0.421,0.753l-0.295,0.167
	c-0.169-1.13-0.716-1.967-1.392-2.594c-0.758-0.669-1.559-1.046-2.401-1.13C226.06,71.906,225.892,71.892,225.733,71.892"/>
<path d="M232.315,72.884l-0.982,0.953l0.107,1.785C231.973,74.887,232.278,73.981,232.315,72.884"/>
<path d="M246.943,64.413l0.108,0.177l0.238,0.195L246.943,64.413 M247.556,62.079l0.464,0.502l0.169,3.18l-0.885-0.958
	c-0.253,1-0.126,1.92,0.379,2.757c0.421,0.67,0.969,1.464,1.644,2.301c0.801,1.046,0.969,2.008,0.801,2.803
	c-0.17,0.711-0.717,1.423-1.644,2.176c-0.37,0.27-1.091,0.4-2.163,0.4c-0.267,0-0.557-0.005-0.871-0.023
	c-1.517-0.084-2.57-0.293-2.949-0.711c-0.295-0.293-0.254-0.795,0.084-1.464l0.885-1.339l-2.233-0.335
	c-0.548,0.795-0.927,1.799-1.096,2.971c-0.253,1.381-0.084,2.385,0.506,3.013c0.707,0.814,2.106,1.237,4.373,1.237
	c0.295,0,0.608-0.009,0.937-0.023c1.559-0.084,2.527-0.084,2.907-0.084c0.97,0.125,1.601,0.418,1.938,0.879
	c0.098,0.13,0.183,0.26,0.257,0.391c0.491-0.841,1.03-1.692,1.62-2.548c-0.389-0.535-1.27-0.986-2.637-1.441
	c0.928-0.711,1.476-1.59,1.602-2.594c0.253-1.255,0.379-2.218,0.464-2.887c2.485,3.431,5.183,6.695,7.459,10.251l0.005-0.028
	c-1.672-2.613-3.353-4.784-4.767-6.667c0-0.581,0.042-1.613,0.084-3.175C252.566,67.7,250.145,64.813,247.556,62.079"/>
<path d="M246.713,61.201c0.084,1.548,0.168,2.636,0.211,3.18l0.019,0.033l0.347,0.372l0.014,0.014c0,0,0,0,0,0.005l0.885,0.958
	l-0.169-3.18l-0.464-0.502C247.275,61.786,246.995,61.494,246.713,61.201"/>
<path d="M253.12,80.489c-0.348,0.651-0.646,1.274-0.933,1.883h0.005C252.646,81.954,252.956,81.335,253.12,80.489 M256.855,73.218
	c1.063,1.437,2.103,2.892,3.114,4.37l0.02-0.153C258.954,76.022,257.913,74.613,256.855,73.218"/>
<path d="M251.059,79.75c-0.918,1.576-1.662,3.124-2.238,4.63c-1.686,4.351-1.938,7.992-0.084,10.92
	c1.012,1.59,2.402,2.636,4.256,3.18c0.773,0.246,1.531,0.363,2.276,0.363c1.039,0,2.051-0.232,3.034-0.697
	c1.854-0.92,3.203-2.343,4.003-4.31c0.969-2.176,0.843-4.31-0.421-6.276c-0.885-1.423-1.939-2.427-3.203-2.929
	c-0.571-0.246-1.124-0.367-1.667-0.367c-0.74,0-1.461,0.223-2.168,0.66c-0.759,0.502-1.222,1.255-1.392,2.301
	c-0.211,1.046-0.041,1.966,0.465,2.803c0.463,0.753,1.138,1.255,2.022,1.548c0.38,0.126,0.74,0.191,1.086,0.191
	c0.464,0,0.904-0.116,1.316-0.358c0.716-0.377,1.138-0.92,1.391-1.674l0.548,0.586c0.674,1.046,0.633,2.218,0,3.473
	c-0.548,1.13-1.306,1.925-2.318,2.427c-0.547,0.279-1.109,0.418-1.686,0.418c-0.712,0-1.447-0.209-2.191-0.628
	c-1.18-0.67-2.317-1.59-3.075-2.887c-1.392-2.259-1.265-5.063,0.211-8.577c0.317-0.73,0.632-1.446,0.965-2.176l-0.712,0.502
	c-0.543,0.298-0.848,0.446-0.871,0.446c-0.009,0,0.027-0.023,0.111-0.07C251.542,81.986,251.663,80.819,251.059,79.75
	 M259.969,77.588l-0.398,2.915c0.52,0.818,1.045,1.674,1.555,2.58c2.738,4.226,5.099,8.661,7.164,13.264l0.008-0.051
	c-0.103-0.218-0.2-0.437-0.303-0.66c0.125-0.497,0.375-1.488,0.748-3.008C266.229,87.398,263.247,82.386,259.969,77.588
	 M254.551,74.673c-0.674,0.846-1.297,1.692-1.872,2.529c0.005,0.009,0.014,0.014,0.019,0.023c0.506,0.669,0.674,1.59,0.506,2.72
	c-0.022,0.191-0.052,0.372-0.084,0.544l0,0l2.191-3.933L254.551,74.673 M254.889,70.615c0,0.014,0,0.033,0,0.047
	c0.66,0.846,1.32,1.702,1.967,2.557C256.209,72.344,255.554,71.475,254.889,70.615"/>
<path d="M252.679,77.202c-0.591,0.855-1.128,1.706-1.62,2.548c0.604,1.069,0.482,2.236-0.342,3.501
	c-0.084,0.046-0.122,0.07-0.112,0.07c0.022,0,0.328-0.149,0.871-0.446l0.712-0.502c0.286-0.609,0.585-1.232,0.932-1.883
	c0.033-0.172,0.062-0.353,0.084-0.544c0.17-1.13,0-2.05-0.506-2.72C252.693,77.216,252.683,77.212,252.679,77.202 M254.889,70.661
	c-0.042,1.562-0.084,2.594-0.084,3.175c1.414,1.883,3.095,4.054,4.768,6.667l0.397-2.915c-1.011-1.478-2.052-2.934-3.114-4.37
	C256.209,72.363,255.549,71.507,254.889,70.661"/>
<path d="M260.663,113.46c1.98-2.552,2.991-5.69,3.033-9.456c2.613,2.008,4.762,4.142,6.49,6.234L260.663,113.46 M268.752,92.581
	c-0.004,0.014-0.008,0.028-0.008,0.047c0.069,0.153,0.145,0.302,0.219,0.456l-0.664,3.213c0.865,1.86,1.703,3.501,2.308,5.072
	l2.908,7.908l-0.843,0.293c-2.95-3.849-6.195-7.239-10.746-9.498l-1.391,3.473c0.758,2.51,0.463,4.979-0.379,7.155
	c-0.886,2.218-2.361,3.975-4.426,5.356l-0.464,1.339l15.845-5.063c0.465,1.381,0.211,2.887-0.379,4.393
	c-0.59,1.506-1.518,2.385-2.738,2.72l-0.549,0.042c0.295-0.502,0.338-1.13,0.126-1.799c-0.169-0.669-0.548-1.213-1.138-1.632
	c-0.37-0.256-0.76-0.377-1.166-0.377c-0.197,0-0.398,0.028-0.604,0.084c-0.633,0.209-1.139,0.669-1.434,1.339
	c-0.337,0.711-0.379,1.381-0.211,2.092c0.253,0.962,0.843,1.674,1.77,2.092c0.521,0.232,1.068,0.353,1.644,0.353
	c0.356,0,0.721-0.046,1.096-0.144c1.771-0.46,3.371-1.632,4.763-3.682c1.391-2.134,1.98-4.31,1.264-6.234l0.674-0.209h0.005
	c0.136,0,0.679,1.59,1.47,4.812c0.844,3.222,1.223,4.812,1.139,4.854c0.169-0.042,0.632-0.962,1.348-2.845
	C276.17,109.318,272.799,100.74,268.752,92.581"/>
<path d="M268.745,92.628c-0.375,1.52-0.623,2.511-0.75,3.008c0.104,0.223,0.201,0.442,0.305,0.66l0.664-3.212
	C268.889,92.93,268.814,92.781,268.745,92.628"/>
<path d="M281.854,141.07c0,0.005,0,0.005,0.005,0.009v-0.005C281.859,141.075,281.859,141.07,281.854,141.07 M270.588,133.297
	c-0.717,0-1.457,0.056-2.215,0.163c-2.233,0.335-4.131,1.255-5.689,2.636c-1.729,1.59-2.443,3.389-2.443,5.523
	c0.041,0.879,0.379,1.59,1.053,2.218c0.524,0.558,1.213,0.851,1.953,0.851c0.094,0,0.187-0.005,0.28-0.014
	c0.759,0,1.392-0.251,1.812-0.753c0.465-0.502,0.675-1.172,0.633-1.925c0-0.669-0.295-1.213-0.76-1.715
	c-0.397-0.395-0.856-0.604-1.377-0.604c-0.084,0-0.178,0.005-0.267,0.019c-0.464,0.042-0.885,0.209-1.306,0.586l-0.042-0.669
	c0-0.92,0.632-1.757,2.19-2.594c1.264-0.711,2.444-1.13,3.582-1.255c0.328-0.046,0.666-0.065,1.008-0.065
	c1.924,0,4.008,0.707,6.156,2.199c2.444,1.757,4.047,3.933,4.846,6.402c0.01,0,0.02-0.005,0.029-0.009
	c-0.01-0.386-0.02-0.762-0.029-1.12c0.281-0.437,0.867-1.218,1.682-2.404c-1.605-2.929-3.484-4.956-5.516-6.048
	C274.512,133.753,272.644,133.297,270.588,133.297"/>
<path d="M276.127,158.774l-11.082-0.753c3.076-1.841,5.563-4.561,7.332-8.243C274.105,152.874,275.286,155.929,276.127,158.774
	 M281.859,141.08c-1.002,2.064-1.62,3.11-1.825,3.208c0.051,1.641,0.131,3.524,0.266,5.658l-0.42,9.121l-0.969-0.084
	c-1.265-5.063-3.076-9.707-6.068-13.724l-3.245,2.469c-0.421,5.105-4.425,9.205-10.704,11.715l20.902,1.842l-0.291,2.203
	c0.023-0.107,0.141-0.818,0.291-2.162c0.459-0.293,1.175-0.748,2.051-1.455C282.266,153.632,282.364,147.342,281.859,141.08
	 M281.817,140.573c-0.042,0.065-0.089,0.126-0.131,0.191c0.057,0.102,0.111,0.2,0.169,0.307
	C281.845,140.903,281.831,140.74,281.817,140.573"/>
<path d="M281.686,140.764c-0.814,1.186-1.4,1.967-1.682,2.404c0.01,0.358,0.02,0.735,0.029,1.12
	c0.205-0.098,0.823-1.144,1.825-3.208c-0.005-0.005-0.005-0.005-0.005-0.009C281.797,140.963,281.743,140.866,281.686,140.764"/>
<path d="M281.859,159.862c-0.005,0.005-0.009,0.005-0.014,0.009c-0.062,0.894-0.126,1.781-0.197,2.67l-2.317,2.258l0.172-1.311
	c-0.004,0.01-0.004,0.014-0.004,0.014l0,0c-0.758,1.088-1.602,1.799-2.486,2.092c-0.417,0.14-0.913,0.201-1.489,0.201
	c-0.474,0-1.002-0.043-1.587-0.116l-12.77-1.632l-2.401,1.715l20.017,3.013l-0.506,3.804c0.112-0.619,0.188-1.195,0.253-1.711
	c0.38-0.377,1.181-1.089,2.318-2.135c-0.095,0.702-0.201,1.404-0.31,2.102l0.014-0.01l0.296-2.05l2.065-0.377l1.305-1.381
	c-4.088,0.167-6.32,0.209-6.742,0.209c2.402-1.298,3.793-2.804,4.172-4.478L281.859,159.862"/>
<path d="M281.845,159.871c-0.876,0.707-1.593,1.162-2.052,1.455c-0.149,1.344-0.267,2.055-0.289,2.162l-0.174,1.311l2.318-2.258
	C281.717,161.652,281.784,160.764,281.845,159.871"/>
<line x1="284.219" y1="167.016" x2="284.219" y2="167.016"/>
<path d="M280.538,170.833l-2.262,1.748v-0.006c-0.104,0.59-0.238,1.219-0.421,1.889c-0.295,1.338-0.632,2.929-1.054,4.686
	l-3.37-1.004c-1.757-0.395-3.207-0.596-4.359-0.596c-1.882,0-2.95,0.535-3.184,1.6c-0.212,0.879,0,2.051,0.379,3.473
	c0.379,1.34,0.885,2.385,1.476,3.18c-0.596,0.443-1.166,0.656-1.732,0.656c-0.239,0-0.473-0.037-0.713-0.111
	c-1.391-0.46-2.401-1.424-3.033-2.887c-0.674-1.465-0.674-2.887-0.379-4.394c0.548-2.385,2.654-3.933,6.363-4.812
	c2.041-0.498,4.172-0.768,6.362-0.768c0.755,0,1.513,0.033,2.276,0.098l0.969-1.715c-0.848-0.022-1.667-0.037-2.458-0.037
	c-9.847,0-15.405,1.949-16.379,6.481c-0.59,2.343-0.548,4.31,0.464,6.024c0.969,1.633,2.571,2.846,4.889,3.683
	c0.608,0.209,1.23,0.312,1.858,0.312c0.627,0,1.261-0.103,1.892-0.312c1.265-0.418,2.36-1.213,3.287-2.385
	c-0.59-0.628-1.18-1.507-1.854-2.72c-0.717-1.424-1.18-2.469-1.096-3.055l0.547-0.335l7.291,1.841
	c-0.969,4.394-2.613,8.577-3.92,12.887l2.656-1.674C277.458,185.509,279.387,178.23,280.538,170.833"/>
<path d="M280.847,168.732c-1.138,1.046-1.938,1.758-2.318,2.135c-0.065,0.516-0.14,1.092-0.253,1.711v0.004l2.262-1.748
	C280.646,170.136,280.754,169.434,280.847,168.732"/>
<path d="M280.088,178.941l-1.221,5.355c1.643,4.352,3.117,8.912,4.508,13.683l1.392-3.097
	C283.502,189.318,282.069,184.046,280.088,178.941"/>
<polygon points="222.271,41.117 223.964,42.062 224.633,44.967 222.978,43.919 "/>
<polygon points="230.991,77.085 231.847,76.355 231.824,74.162 231.104,74.63 "/>
</svg>
